<?xml version="1.0" encoding="utf-8"?>
<!-- Generator: Adobe Illustrator 24.0.1, SVG Export Plug-In . SVG Version: 6.00 Build 0)  -->
<svg version="1.1" xmlns="http://www.w3.org/2000/svg" xmlns:xlink="http://www.w3.org/1999/xlink" x="0px" y="0px"
	 viewBox="0 0 40 40" style="enable-background:new 0 0 40 40;" xml:space="preserve">
<style type="text/css">
	.st23{fill:#91a5af;}
</style>
<g id="OBJECTS">
			<path class="st23" d="M30.8,9.6H3V3.2C3,3.2,3,3.2,3,3.2h8.4v3.4c0,0.5,0.3,0.8,0.7,0.8c0.4,0,0.7-0.4,0.7-0.8V3.2h9.2
				c0.4,0,0.7-0.4,0.7-0.8c0-0.5-0.3-0.8-0.7-0.8H3c-0.9,0-1.6,0.8-1.6,1.8v33.5c0,1,0.7,1.8,1.6,1.8h6.3c0.4,0,0.7-0.4,0.7-0.8
				c0-0.5-0.3-0.8-0.7-0.8H3c0,0-0.1,0-0.1-0.1V22.9h19c0.4,0,0.7-0.4,0.7-0.8c0-0.5-0.3-0.8-0.7-0.8h-8.4v-5.9
				c0-0.5-0.3-0.8-0.7-0.8H7.7c-0.4,0-0.7,0.4-0.7,0.8c0,0.5,0.3,0.8,0.7,0.8h4.4v5.1H3v-9.9h17.2v5.4c0,0.5,0.3,0.8,0.7,0.8
				c0.4,0,0.7-0.4,0.7-0.8v-5.4H30v16.4c0,0.5,0.3,0.8,0.7,0.8c0.4,0,0.7-0.4,0.7-0.8V10.5C31.5,10,31.2,9.6,30.8,9.6L30.8,9.6z
				 M30.8,9.6"/>
			<path class="st23" d="M36.9,1.5h-8.3c-0.4,0-0.7,0.4-0.7,0.8c0,0.5,0.3,0.8,0.7,0.8h8.3c0,0,0.1,0,0.1,0.1v33.5
				c0,0.1,0,0.1-0.1,0.1H16.2v-8.2h1.9c0.4,0,0.7-0.4,0.7-0.8c0-0.5-0.3-0.8-0.7-0.8H9.1c-0.4,0-0.7,0.4-0.7,0.8
				c0,0.5,0.3,0.8,0.7,0.8h5.7v9.1c0,0.5,0.3,0.8,0.7,0.8h21.5c0.9,0,1.6-0.8,1.6-1.8V3.2C38.5,2.3,37.8,1.5,36.9,1.5L36.9,1.5z
				 M36.9,1.5"/>
			<path class="st23" d="M26.4,16.6c-0.4,0-0.7,0.4-0.7,0.8h0V31h-6.4c-0.4,0-0.7,0.4-0.7,0.8c0,0.5,0.3,0.8,0.7,0.8h7.1
				c0.4,0,0.7-0.4,0.7-0.8V17.5C27.1,17,26.8,16.6,26.4,16.6L26.4,16.6z M26.4,16.6"/>
</g>
</svg>
