<?xml version="1.0" encoding="utf-8"?>
<!-- Generator: Adobe Illustrator 24.0.1, SVG Export Plug-In . SVG Version: 6.00 Build 0)  -->
<svg version="1.1" xmlns="http://www.w3.org/2000/svg" xmlns:xlink="http://www.w3.org/1999/xlink" x="0px" y="0px"
	 viewBox="0 0 151.5 151" style="enable-background:new 0 0 151.5 151;" xml:space="preserve">
<style type="text/css">
	.st0{display:none;}
	.st1{fill:none;stroke:#CA18E2;stroke-width:3;stroke-miterlimit:10;}
	.st2{fill:none;stroke:#FFFFFF;stroke-linejoin:round;stroke-miterlimit:10;}
	.st3{fill:#FFFFFF;stroke:#CA18E2;stroke-miterlimit:10;}
</style>
<g id="BACKGROUND" class="st0">
</g>
<g id="OBJECTS">
	<g>
		<path class="st1" d="M130.8,115.1c-2.4-2.4-6.3-2.8-6.3-2.8c-1.4-0.1-3.3-1-4.3-2l-0.5-0.5c-1-1-1-2.6,0-3.6l28.5-28.5
			c1-1,1-2.6,0-3.6l-28.5-28.5c-1-1-1-2.6,0-3.6l0,0c1-1,2.9-1.9,4.3-2c0,0,3.9-0.4,6.3-2.8c4.1-4.1,4.1-10.9,0-15
			c-4.1-4.1-10.9-4.1-15,0c-2.4,2.4-2.8,6.3-2.8,6.3c-0.1,1.4-1,3.3-2,4.3l0,0c-1,1-2.6,1-3.6,0L78.5,4.3c-1-1-2.6-1-3.6,0
			L46.4,32.8c-1,1-1,2.6,0,3.6l0.3,0.3c1,1,2.9,1.9,4.3,2c0,0,3.9,0.4,6.3,2.8c4.1,4.1,4.1,10.8,0,15c-4.1,4.1-10.9,4.1-15,0
			c-2.4-2.4-2.8-6.3-2.8-6.3c-0.1-1.4-1-3.3-2-4.3l-0.3-0.3c-1-1-2.6-1-3.6,0L5.1,74.1c-1,1-1,2.6,0,3.6l28.5,28.5c1,1,2.6,1,3.6,0
			l0.3-0.3c1-1,1.9-2.9,2-4.3c0,0,0.4-3.9,2.8-6.3c4.1-4.1,10.9-4.1,15,0c4.1,4.1,4.1,10.9,0,15c-2.4,2.4-6.3,2.8-6.3,2.8
			c-1.4,0.1-3.3,1-4.3,2l-0.3,0.3c-1,1-1,2.6,0,3.6l28.5,28.5c1,1,2.6,1,3.6,0l28.5-28.5c1-1,2.6-1,3.6,0l0.5,0.5c1,1,1.9,2.9,2,4.3
			c0,0,0.4,3.9,2.8,6.3c4.1,4.1,10.9,4.1,15,0C135,125.9,135,119.2,130.8,115.1z"/>
		<path class="st2" d="M130.8,115.1c-2.4-2.4-6.3-2.8-6.3-2.8c-1.4-0.1-3.3-1-4.3-2l-0.5-0.5c-1-1-1-2.6,0-3.6l28.5-28.5
			c1-1,1-2.6,0-3.6l-28.5-28.5c-1-1-1-2.6,0-3.6l0,0c1-1,2.9-1.9,4.3-2c0,0,3.9-0.4,6.3-2.8c4.1-4.1,4.1-10.9,0-15
			c-4.1-4.1-10.9-4.1-15,0c-2.4,2.4-2.8,6.3-2.8,6.3c-0.1,1.4-1,3.3-2,4.3l0,0c-1,1-2.6,1-3.6,0L78.5,4.3c-1-1-2.6-1-3.6,0
			L46.4,32.8c-1,1-1,2.6,0,3.6l0.3,0.3c1,1,2.9,1.9,4.3,2c0,0,3.9,0.4,6.3,2.8c4.1,4.1,4.1,10.8,0,15c-4.1,4.1-10.9,4.1-15,0
			c-2.4-2.4-2.8-6.3-2.8-6.3c-0.1-1.4-1-3.3-2-4.3l-0.3-0.3c-1-1-2.6-1-3.6,0L5.1,74.1c-1,1-1,2.6,0,3.6l28.5,28.5c1,1,2.6,1,3.6,0
			l0.3-0.3c1-1,1.9-2.9,2-4.3c0,0,0.4-3.9,2.8-6.3c4.1-4.1,10.9-4.1,15,0c4.1,4.1,4.1,10.9,0,15c-2.4,2.4-6.3,2.8-6.3,2.8
			c-1.4,0.1-3.3,1-4.3,2l-0.3,0.3c-1,1-1,2.6,0,3.6l28.5,28.5c1,1,2.6,1,3.6,0l28.5-28.5c1-1,2.6-1,3.6,0l0.5,0.5c1,1,1.9,2.9,2,4.3
			c0,0,0.4,3.9,2.8,6.3c4.1,4.1,10.9,4.1,15,0C135,125.9,135,119.2,130.8,115.1z"/>
		<path class="st3" d="M101.6,61.6H72.7c-2.7,0-5.6,1.5-5.6,5.6v19.3c0,4.1,2.9,5.6,5.6,5.6h10.7v3.6h-1.8c-0.5,0-0.9,0.4-0.9,0.9
			c0,0.5,0.4,0.9,0.9,0.9H93c0.5,0,0.9-0.4,0.9-0.9c0-0.5-0.4-0.9-0.9-0.9h-2.1v-3.6h10.7c4.1,0,5.6-2.9,5.6-5.6V67.1
			C107.2,63,104.3,61.6,101.6,61.6L101.6,61.6z M89.2,95.7h-4v-3.6h4V95.7z M105.5,86.5c0,1.2-0.4,3.9-3.9,3.9H72.7
			c-1.2,0-3.9-0.4-3.9-3.9v-1.2h36.6V86.5z M105.5,83.5H68.9V67.1c0-3.5,2.7-3.9,3.9-3.9h28.9c1.2,0,3.9,0.4,3.9,3.9V83.5z
			 M105.5,83.5"/>
	</g>
</g>
</svg>
